solid OpenSCAD_Model
  facet normal -0.98077 -0.195165 0
    outer loop
      vertex 38.6855 12.2219 0
      vertex 38.6421 12.44 3
      vertex 38.6421 12.44 0
    endloop
  endfacet
  facet normal -0.98077 -0.195165 0
    outer loop
      vertex 38.6421 12.44 3
      vertex 38.6855 12.2219 0
      vertex 38.6855 12.2219 3
    endloop
  endfacet
  facet normal -0.997872 -0.0652057 0
    outer loop
      vertex 38.7 12 0
      vertex 38.6855 12.2219 3
      vertex 38.6855 12.2219 0
    endloop
  endfacet
  facet normal -0.997872 -0.0652057 0
    outer loop
      vertex 38.6855 12.2219 3
      vertex 38.7 12 0
      vertex 38.7 12 3
    endloop
  endfacet
  facet normal -0.321484 0.946915 0
    outer loop
      vertex 37.6506 10.4294 0
      vertex 37.44 10.3579 3
      vertex 37.6506 10.4294 3
    endloop
  endfacet
  facet normal -0.321484 0.946915 0
    outer loop
      vertex 37.44 10.3579 3
      vertex 37.6506 10.4294 0
      vertex 37.44 10.3579 0
    endloop
  endfacet
  facet normal -0.831566 0.555426 0
    outer loop
      vertex 38.3487 10.9651 0
      vertex 38.4722 11.15 3
      vertex 38.4722 11.15 0
    endloop
  endfacet
  facet normal -0.831566 0.555426 0
    outer loop
      vertex 38.4722 11.15 3
      vertex 38.3487 10.9651 0
      vertex 38.3487 10.9651 3
    endloop
  endfacet
  facet normal -0.946915 0.321484 0
    outer loop
      vertex 38.5706 11.3494 0
      vertex 38.6421 11.56 3
      vertex 38.6421 11.56 0
    endloop
  endfacet
  facet normal -0.946915 0.321484 0
    outer loop
      vertex 38.6421 11.56 3
      vertex 38.5706 11.3494 0
      vertex 38.5706 11.3494 3
    endloop
  endfacet
  facet normal -0.896754 0.44253 0
    outer loop
      vertex 38.4722 11.15 0
      vertex 38.5706 11.3494 3
      vertex 38.5706 11.3494 0
    endloop
  endfacet
  facet normal -0.896754 0.44253 0
    outer loop
      vertex 38.5706 11.3494 3
      vertex 38.4722 11.15 0
      vertex 38.4722 11.15 3
    endloop
  endfacet
  facet normal -0.555426 0.831566 0
    outer loop
      vertex 38.0349 10.6513 0
      vertex 37.85 10.5278 3
      vertex 38.0349 10.6513 3
    endloop
  endfacet
  facet normal -0.555426 0.831566 0
    outer loop
      vertex 37.85 10.5278 3
      vertex 38.0349 10.6513 0
      vertex 37.85 10.5278 0
    endloop
  endfacet
  facet normal 0.659268 0.751908 -0
    outer loop
      vertex 35.9651 10.6513 0
      vertex 35.7979 10.7979 3
      vertex 35.9651 10.6513 3
    endloop
  endfacet
  facet normal 0.659268 0.751908 0
    outer loop
      vertex 35.7979 10.7979 3
      vertex 35.9651 10.6513 0
      vertex 35.7979 10.7979 0
    endloop
  endfacet
  facet normal 0.751908 0.659268 0
    outer loop
      vertex 35.7979 10.7979 3
      vertex 35.6513 10.9651 0
      vertex 35.6513 10.9651 3
    endloop
  endfacet
  facet normal 0.751908 0.659268 0
    outer loop
      vertex 35.6513 10.9651 0
      vertex 35.7979 10.7979 3
      vertex 35.7979 10.7979 0
    endloop
  endfacet
  facet normal 0.831566 0.555426 0
    outer loop
      vertex 35.6513 10.9651 3
      vertex 35.5278 11.15 0
      vertex 35.5278 11.15 3
    endloop
  endfacet
  facet normal 0.831566 0.555426 0
    outer loop
      vertex 35.5278 11.15 0
      vertex 35.6513 10.9651 3
      vertex 35.6513 10.9651 0
    endloop
  endfacet
  facet normal -0.831538 -0.555468 0
    outer loop
      vertex 38.4722 12.85 0
      vertex 38.372 13 3
      vertex 38.372 13 0
    endloop
  endfacet
  facet normal -0.831538 -0.555468 0
    outer loop
      vertex 38.372 13 3
      vertex 38.4722 12.85 0
      vertex 38.4722 12.85 3
    endloop
  endfacet
  facet normal -0.195165 0.98077 0
    outer loop
      vertex 37.44 10.3579 0
      vertex 37.2219 10.3145 3
      vertex 37.44 10.3579 3
    endloop
  endfacet
  facet normal -0.195165 0.98077 0
    outer loop
      vertex 37.2219 10.3145 3
      vertex 37.44 10.3579 0
      vertex 37.2219 10.3145 0
    endloop
  endfacet
  facet normal -0.98077 0.195165 0
    outer loop
      vertex 38.6421 11.56 0
      vertex 38.6855 11.7781 3
      vertex 38.6855 11.7781 0
    endloop
  endfacet
  facet normal -0.98077 0.195165 0
    outer loop
      vertex 38.6855 11.7781 3
      vertex 38.6421 11.56 0
      vertex 38.6421 11.56 3
    endloop
  endfacet
  facet normal 0.946915 0.321484 0
    outer loop
      vertex 35.4294 11.3494 3
      vertex 35.3579 11.56 0
      vertex 35.3579 11.56 3
    endloop
  endfacet
  facet normal 0.946915 0.321484 0
    outer loop
      vertex 35.3579 11.56 0
      vertex 35.4294 11.3494 3
      vertex 35.4294 11.3494 0
    endloop
  endfacet
  facet normal -0.44253 0.896754 0
    outer loop
      vertex 37.85 10.5278 0
      vertex 37.6506 10.4294 3
      vertex 37.85 10.5278 3
    endloop
  endfacet
  facet normal -0.44253 0.896754 0
    outer loop
      vertex 37.6506 10.4294 3
      vertex 37.85 10.5278 0
      vertex 37.6506 10.4294 0
    endloop
  endfacet
  facet normal -0.896754 -0.44253 0
    outer loop
      vertex 38.5706 12.6506 0
      vertex 38.4722 12.85 3
      vertex 38.4722 12.85 0
    endloop
  endfacet
  facet normal -0.896754 -0.44253 0
    outer loop
      vertex 38.4722 12.85 3
      vertex 38.5706 12.6506 0
      vertex 38.5706 12.6506 3
    endloop
  endfacet
  facet normal -0.997872 0.0652057 0
    outer loop
      vertex 38.6855 11.7781 0
      vertex 38.7 12 3
      vertex 38.7 12 0
    endloop
  endfacet
  facet normal -0.997872 0.0652057 0
    outer loop
      vertex 38.7 12 3
      vertex 38.6855 11.7781 0
      vertex 38.6855 11.7781 3
    endloop
  endfacet
  facet normal -0.0652057 0.997872 0
    outer loop
      vertex 37.2219 10.3145 0
      vertex 37 10.3 3
      vertex 37.2219 10.3145 3
    endloop
  endfacet
  facet normal -0.0652057 0.997872 0
    outer loop
      vertex 37 10.3 3
      vertex 37.2219 10.3145 0
      vertex 37 10.3 0
    endloop
  endfacet
  facet normal 0.997872 0.0652057 0
    outer loop
      vertex 35.3145 11.7781 3
      vertex 35.3 12 0
      vertex 35.3 12 3
    endloop
  endfacet
  facet normal 0.997872 0.0652057 0
    outer loop
      vertex 35.3 12 0
      vertex 35.3145 11.7781 3
      vertex 35.3145 11.7781 0
    endloop
  endfacet
  facet normal -0.751908 0.659268 0
    outer loop
      vertex 38.2021 10.7979 0
      vertex 38.3487 10.9651 3
      vertex 38.3487 10.9651 0
    endloop
  endfacet
  facet normal -0.751908 0.659268 0
    outer loop
      vertex 38.3487 10.9651 3
      vertex 38.2021 10.7979 0
      vertex 38.2021 10.7979 3
    endloop
  endfacet
  facet normal 0.831538 -0.555468 0
    outer loop
      vertex 35.5278 12.85 3
      vertex 35.628 13 0
      vertex 35.628 13 3
    endloop
  endfacet
  facet normal 0.831538 -0.555468 0
    outer loop
      vertex 35.628 13 0
      vertex 35.5278 12.85 3
      vertex 35.5278 12.85 0
    endloop
  endfacet
  facet normal 0.98077 0.195165 0
    outer loop
      vertex 35.3579 11.56 3
      vertex 35.3145 11.7781 0
      vertex 35.3145 11.7781 3
    endloop
  endfacet
  facet normal 0.98077 0.195165 0
    outer loop
      vertex 35.3145 11.7781 0
      vertex 35.3579 11.56 3
      vertex 35.3579 11.56 0
    endloop
  endfacet
  facet normal 0.321484 0.946915 -0
    outer loop
      vertex 36.56 10.3579 0
      vertex 36.3494 10.4294 3
      vertex 36.56 10.3579 3
    endloop
  endfacet
  facet normal 0.321484 0.946915 0
    outer loop
      vertex 36.3494 10.4294 3
      vertex 36.56 10.3579 0
      vertex 36.3494 10.4294 0
    endloop
  endfacet
  facet normal -0.946915 -0.321484 0
    outer loop
      vertex 38.6421 12.44 0
      vertex 38.5706 12.6506 3
      vertex 38.5706 12.6506 0
    endloop
  endfacet
  facet normal -0.946915 -0.321484 0
    outer loop
      vertex 38.5706 12.6506 3
      vertex 38.6421 12.44 0
      vertex 38.6421 12.44 3
    endloop
  endfacet
  facet normal 0.44253 0.896754 -0
    outer loop
      vertex 36.3494 10.4294 0
      vertex 36.15 10.5278 3
      vertex 36.3494 10.4294 3
    endloop
  endfacet
  facet normal 0.44253 0.896754 0
    outer loop
      vertex 36.15 10.5278 3
      vertex 36.3494 10.4294 0
      vertex 36.15 10.5278 0
    endloop
  endfacet
  facet normal 0.555426 0.831566 -0
    outer loop
      vertex 36.15 10.5278 0
      vertex 35.9651 10.6513 3
      vertex 36.15 10.5278 3
    endloop
  endfacet
  facet normal 0.555426 0.831566 0
    outer loop
      vertex 35.9651 10.6513 3
      vertex 36.15 10.5278 0
      vertex 35.9651 10.6513 0
    endloop
  endfacet
  facet normal 0.195165 0.98077 -0
    outer loop
      vertex 36.7781 10.3145 0
      vertex 36.56 10.3579 3
      vertex 36.7781 10.3145 3
    endloop
  endfacet
  facet normal 0.195165 0.98077 0
    outer loop
      vertex 36.56 10.3579 3
      vertex 36.7781 10.3145 0
      vertex 36.56 10.3579 0
    endloop
  endfacet
  facet normal 0.896754 -0.44253 0
    outer loop
      vertex 35.4294 12.6506 3
      vertex 35.5278 12.85 0
      vertex 35.5278 12.85 3
    endloop
  endfacet
  facet normal 0.896754 -0.44253 0
    outer loop
      vertex 35.5278 12.85 0
      vertex 35.4294 12.6506 3
      vertex 35.4294 12.6506 0
    endloop
  endfacet
  facet normal 0.0652057 0.997872 -0
    outer loop
      vertex 37 10.3 0
      vertex 36.7781 10.3145 3
      vertex 37 10.3 3
    endloop
  endfacet
  facet normal 0.0652057 0.997872 0
    outer loop
      vertex 36.7781 10.3145 3
      vertex 37 10.3 0
      vertex 36.7781 10.3145 0
    endloop
  endfacet
  facet normal 0.896754 0.44253 0
    outer loop
      vertex 35.5278 11.15 3
      vertex 35.4294 11.3494 0
      vertex 35.4294 11.3494 3
    endloop
  endfacet
  facet normal 0.896754 0.44253 0
    outer loop
      vertex 35.4294 11.3494 0
      vertex 35.5278 11.15 3
      vertex 35.5278 11.15 0
    endloop
  endfacet
  facet normal 0.997872 -0.0652057 0
    outer loop
      vertex 35.3 12 3
      vertex 35.3145 12.2219 0
      vertex 35.3145 12.2219 3
    endloop
  endfacet
  facet normal 0.997872 -0.0652057 0
    outer loop
      vertex 35.3145 12.2219 0
      vertex 35.3 12 3
      vertex 35.3 12 0
    endloop
  endfacet
  facet normal 0.98077 -0.195165 0
    outer loop
      vertex 35.3145 12.2219 3
      vertex 35.3579 12.44 0
      vertex 35.3579 12.44 3
    endloop
  endfacet
  facet normal 0.98077 -0.195165 0
    outer loop
      vertex 35.3579 12.44 0
      vertex 35.3145 12.2219 3
      vertex 35.3145 12.2219 0
    endloop
  endfacet
  facet normal 0.946915 -0.321484 0
    outer loop
      vertex 35.3579 12.44 3
      vertex 35.4294 12.6506 0
      vertex 35.4294 12.6506 3
    endloop
  endfacet
  facet normal 0.946915 -0.321484 0
    outer loop
      vertex 35.4294 12.6506 0
      vertex 35.3579 12.44 3
      vertex 35.3579 12.44 0
    endloop
  endfacet
  facet normal -0.659268 0.751908 0
    outer loop
      vertex 38.2021 10.7979 0
      vertex 38.0349 10.6513 3
      vertex 38.2021 10.7979 3
    endloop
  endfacet
  facet normal -0.659268 0.751908 0
    outer loop
      vertex 38.0349 10.6513 3
      vertex 38.2021 10.7979 0
      vertex 38.0349 10.6513 0
    endloop
  endfacet
  facet normal -0.98077 -0.195165 0
    outer loop
      vertex 38.6855 52.2219 0
      vertex 38.6421 52.44 3
      vertex 38.6421 52.44 0
    endloop
  endfacet
  facet normal -0.98077 -0.195165 0
    outer loop
      vertex 38.6421 52.44 3
      vertex 38.6855 52.2219 0
      vertex 38.6855 52.2219 3
    endloop
  endfacet
  facet normal -0.997872 -0.0652057 0
    outer loop
      vertex 38.7 52 0
      vertex 38.6855 52.2219 3
      vertex 38.6855 52.2219 0
    endloop
  endfacet
  facet normal -0.997872 -0.0652057 0
    outer loop
      vertex 38.6855 52.2219 3
      vertex 38.7 52 0
      vertex 38.7 52 3
    endloop
  endfacet
  facet normal 0.44253 -0.896754 0
    outer loop
      vertex 36.15 53.4722 0
      vertex 36.3494 53.5706 3
      vertex 36.15 53.4722 3
    endloop
  endfacet
  facet normal 0.44253 -0.896754 0
    outer loop
      vertex 36.3494 53.5706 3
      vertex 36.15 53.4722 0
      vertex 36.3494 53.5706 0
    endloop
  endfacet
  facet normal -0.555426 -0.831566 0
    outer loop
      vertex 37.85 53.4722 0
      vertex 38.0349 53.3487 3
      vertex 37.85 53.4722 3
    endloop
  endfacet
  facet normal -0.555426 -0.831566 -0
    outer loop
      vertex 38.0349 53.3487 3
      vertex 37.85 53.4722 0
      vertex 38.0349 53.3487 0
    endloop
  endfacet
  facet normal 0.659268 -0.751908 0
    outer loop
      vertex 35.7979 53.2021 0
      vertex 35.9651 53.3487 3
      vertex 35.7979 53.2021 3
    endloop
  endfacet
  facet normal 0.659268 -0.751908 0
    outer loop
      vertex 35.9651 53.3487 3
      vertex 35.7979 53.2021 0
      vertex 35.9651 53.3487 0
    endloop
  endfacet
  facet normal -0.946915 0.321484 0
    outer loop
      vertex 38.5706 51.3494 0
      vertex 38.6421 51.56 3
      vertex 38.6421 51.56 0
    endloop
  endfacet
  facet normal -0.946915 0.321484 0
    outer loop
      vertex 38.6421 51.56 3
      vertex 38.5706 51.3494 0
      vertex 38.5706 51.3494 3
    endloop
  endfacet
  facet normal -0.321484 -0.946915 0
    outer loop
      vertex 37.44 53.6421 0
      vertex 37.6506 53.5706 3
      vertex 37.44 53.6421 3
    endloop
  endfacet
  facet normal -0.321484 -0.946915 -0
    outer loop
      vertex 37.6506 53.5706 3
      vertex 37.44 53.6421 0
      vertex 37.6506 53.5706 0
    endloop
  endfacet
  facet normal -0.195165 -0.98077 0
    outer loop
      vertex 37.2219 53.6855 0
      vertex 37.44 53.6421 3
      vertex 37.2219 53.6855 3
    endloop
  endfacet
  facet normal -0.195165 -0.98077 -0
    outer loop
      vertex 37.44 53.6421 3
      vertex 37.2219 53.6855 0
      vertex 37.44 53.6421 0
    endloop
  endfacet
  facet normal 0.555426 -0.831566 0
    outer loop
      vertex 35.9651 53.3487 0
      vertex 36.15 53.4722 3
      vertex 35.9651 53.3487 3
    endloop
  endfacet
  facet normal 0.555426 -0.831566 0
    outer loop
      vertex 36.15 53.4722 3
      vertex 35.9651 53.3487 0
      vertex 36.15 53.4722 0
    endloop
  endfacet
  facet normal -0.896754 0.44253 0
    outer loop
      vertex 38.4722 51.15 0
      vertex 38.5706 51.3494 3
      vertex 38.5706 51.3494 0
    endloop
  endfacet
  facet normal -0.896754 0.44253 0
    outer loop
      vertex 38.5706 51.3494 3
      vertex 38.4722 51.15 0
      vertex 38.4722 51.15 3
    endloop
  endfacet
  facet normal -0.659268 -0.751908 0
    outer loop
      vertex 38.0349 53.3487 0
      vertex 38.2021 53.2021 3
      vertex 38.0349 53.3487 3
    endloop
  endfacet
  facet normal -0.659268 -0.751908 -0
    outer loop
      vertex 38.2021 53.2021 3
      vertex 38.0349 53.3487 0
      vertex 38.2021 53.2021 0
    endloop
  endfacet
  facet normal -0.44253 -0.896754 0
    outer loop
      vertex 37.6506 53.5706 0
      vertex 37.85 53.4722 3
      vertex 37.6506 53.5706 3
    endloop
  endfacet
  facet normal -0.44253 -0.896754 -0
    outer loop
      vertex 37.85 53.4722 3
      vertex 37.6506 53.5706 0
      vertex 37.85 53.4722 0
    endloop
  endfacet
  facet normal 0.997872 -0.0652057 0
    outer loop
      vertex 35.3 52 3
      vertex 35.3145 52.2219 0
      vertex 35.3145 52.2219 3
    endloop
  endfacet
  facet normal 0.997872 -0.0652057 0
    outer loop
      vertex 35.3145 52.2219 0
      vertex 35.3 52 3
      vertex 35.3 52 0
    endloop
  endfacet
  facet normal 0.831538 0.555468 0
    outer loop
      vertex 35.628 51 3
      vertex 35.5278 51.15 0
      vertex 35.5278 51.15 3
    endloop
  endfacet
  facet normal 0.831538 0.555468 0
    outer loop
      vertex 35.5278 51.15 0
      vertex 35.628 51 3
      vertex 35.628 51 0
    endloop
  endfacet
  facet normal -0.831566 -0.555426 0
    outer loop
      vertex 38.4722 52.85 0
      vertex 38.3487 53.0349 3
      vertex 38.3487 53.0349 0
    endloop
  endfacet
  facet normal -0.831566 -0.555426 0
    outer loop
      vertex 38.3487 53.0349 3
      vertex 38.4722 52.85 0
      vertex 38.4722 52.85 3
    endloop
  endfacet
  facet normal -0.98077 0.195165 0
    outer loop
      vertex 38.6421 51.56 0
      vertex 38.6855 51.7781 3
      vertex 38.6855 51.7781 0
    endloop
  endfacet
  facet normal -0.98077 0.195165 0
    outer loop
      vertex 38.6855 51.7781 3
      vertex 38.6421 51.56 0
      vertex 38.6421 51.56 3
    endloop
  endfacet
  facet normal 0.946915 0.321484 0
    outer loop
      vertex 35.4294 51.3494 3
      vertex 35.3579 51.56 0
      vertex 35.3579 51.56 3
    endloop
  endfacet
  facet normal 0.946915 0.321484 0
    outer loop
      vertex 35.3579 51.56 0
      vertex 35.4294 51.3494 3
      vertex 35.4294 51.3494 0
    endloop
  endfacet
  facet normal -0.0652057 -0.997872 0
    outer loop
      vertex 37 53.7 0
      vertex 37.2219 53.6855 3
      vertex 37 53.7 3
    endloop
  endfacet
  facet normal -0.0652057 -0.997872 -0
    outer loop
      vertex 37.2219 53.6855 3
      vertex 37 53.7 0
      vertex 37.2219 53.6855 0
    endloop
  endfacet
  facet normal 0.321484 -0.946915 0
    outer loop
      vertex 36.3494 53.5706 0
      vertex 36.56 53.6421 3
      vertex 36.3494 53.5706 3
    endloop
  endfacet
  facet normal 0.321484 -0.946915 0
    outer loop
      vertex 36.56 53.6421 3
      vertex 36.3494 53.5706 0
      vertex 36.56 53.6421 0
    endloop
  endfacet
  facet normal 0.195165 -0.98077 0
    outer loop
      vertex 36.56 53.6421 0
      vertex 36.7781 53.6855 3
      vertex 36.56 53.6421 3
    endloop
  endfacet
  facet normal 0.195165 -0.98077 0
    outer loop
      vertex 36.7781 53.6855 3
      vertex 36.56 53.6421 0
      vertex 36.7781 53.6855 0
    endloop
  endfacet
  facet normal -0.896754 -0.44253 0
    outer loop
      vertex 38.5706 52.6506 0
      vertex 38.4722 52.85 3
      vertex 38.4722 52.85 0
    endloop
  endfacet
  facet normal -0.896754 -0.44253 0
    outer loop
      vertex 38.4722 52.85 3
      vertex 38.5706 52.6506 0
      vertex 38.5706 52.6506 3
    endloop
  endfacet
  facet normal -0.997872 0.0652057 0
    outer loop
      vertex 38.6855 51.7781 0
      vertex 38.7 52 3
      vertex 38.7 52 0
    endloop
  endfacet
  facet normal -0.997872 0.0652057 0
    outer loop
      vertex 38.7 52 3
      vertex 38.6855 51.7781 0
      vertex 38.6855 51.7781 3
    endloop
  endfacet
  facet normal -0.751908 -0.659268 0
    outer loop
      vertex 38.3487 53.0349 0
      vertex 38.2021 53.2021 3
      vertex 38.2021 53.2021 0
    endloop
  endfacet
  facet normal -0.751908 -0.659268 0
    outer loop
      vertex 38.2021 53.2021 3
      vertex 38.3487 53.0349 0
      vertex 38.3487 53.0349 3
    endloop
  endfacet
  facet normal 0.997872 0.0652057 0
    outer loop
      vertex 35.3145 51.7781 3
      vertex 35.3 52 0
      vertex 35.3 52 3
    endloop
  endfacet
  facet normal 0.997872 0.0652057 0
    outer loop
      vertex 35.3 52 0
      vertex 35.3145 51.7781 3
      vertex 35.3145 51.7781 0
    endloop
  endfacet
  facet normal 0.751908 -0.659268 0
    outer loop
      vertex 35.6513 53.0349 3
      vertex 35.7979 53.2021 0
      vertex 35.7979 53.2021 3
    endloop
  endfacet
  facet normal 0.751908 -0.659268 0
    outer loop
      vertex 35.7979 53.2021 0
      vertex 35.6513 53.0349 3
      vertex 35.6513 53.0349 0
    endloop
  endfacet
  facet normal 0.831566 -0.555426 0
    outer loop
      vertex 35.5278 52.85 3
      vertex 35.6513 53.0349 0
      vertex 35.6513 53.0349 3
    endloop
  endfacet
  facet normal 0.831566 -0.555426 0
    outer loop
      vertex 35.6513 53.0349 0
      vertex 35.5278 52.85 3
      vertex 35.5278 52.85 0
    endloop
  endfacet
  facet normal 0.0652057 -0.997872 0
    outer loop
      vertex 36.7781 53.6855 0
      vertex 37 53.7 3
      vertex 36.7781 53.6855 3
    endloop
  endfacet
  facet normal 0.0652057 -0.997872 0
    outer loop
      vertex 37 53.7 3
      vertex 36.7781 53.6855 0
      vertex 37 53.7 0
    endloop
  endfacet
  facet normal 0.98077 0.195165 0
    outer loop
      vertex 35.3579 51.56 3
      vertex 35.3145 51.7781 0
      vertex 35.3145 51.7781 3
    endloop
  endfacet
  facet normal 0.98077 0.195165 0
    outer loop
      vertex 35.3145 51.7781 0
      vertex 35.3579 51.56 3
      vertex 35.3579 51.56 0
    endloop
  endfacet
  facet normal -0.946915 -0.321484 0
    outer loop
      vertex 38.6421 52.44 0
      vertex 38.5706 52.6506 3
      vertex 38.5706 52.6506 0
    endloop
  endfacet
  facet normal -0.946915 -0.321484 0
    outer loop
      vertex 38.5706 52.6506 3
      vertex 38.6421 52.44 0
      vertex 38.6421 52.44 3
    endloop
  endfacet
  facet normal -0.831538 0.555468 0
    outer loop
      vertex 38.372 51 0
      vertex 38.4722 51.15 3
      vertex 38.4722 51.15 0
    endloop
  endfacet
  facet normal -0.831538 0.555468 0
    outer loop
      vertex 38.4722 51.15 3
      vertex 38.372 51 0
      vertex 38.372 51 3
    endloop
  endfacet
  facet normal 0.896754 -0.44253 0
    outer loop
      vertex 35.4294 52.6506 3
      vertex 35.5278 52.85 0
      vertex 35.5278 52.85 3
    endloop
  endfacet
  facet normal 0.896754 -0.44253 0
    outer loop
      vertex 35.5278 52.85 0
      vertex 35.4294 52.6506 3
      vertex 35.4294 52.6506 0
    endloop
  endfacet
  facet normal 0.896754 0.44253 0
    outer loop
      vertex 35.5278 51.15 3
      vertex 35.4294 51.3494 0
      vertex 35.4294 51.3494 3
    endloop
  endfacet
  facet normal 0.896754 0.44253 0
    outer loop
      vertex 35.4294 51.3494 0
      vertex 35.5278 51.15 3
      vertex 35.5278 51.15 0
    endloop
  endfacet
  facet normal 0.98077 -0.195165 0
    outer loop
      vertex 35.3145 52.2219 3
      vertex 35.3579 52.44 0
      vertex 35.3579 52.44 3
    endloop
  endfacet
  facet normal 0.98077 -0.195165 0
    outer loop
      vertex 35.3579 52.44 0
      vertex 35.3145 52.2219 3
      vertex 35.3145 52.2219 0
    endloop
  endfacet
  facet normal 0.946915 -0.321484 0
    outer loop
      vertex 35.3579 52.44 3
      vertex 35.4294 52.6506 0
      vertex 35.4294 52.6506 3
    endloop
  endfacet
  facet normal 0.946915 -0.321484 0
    outer loop
      vertex 35.4294 52.6506 0
      vertex 35.3579 52.44 3
      vertex 35.3579 52.44 0
    endloop
  endfacet
  facet normal 1 -0 0
    outer loop
      vertex 74 0 3
      vertex 74 64 0
      vertex 74 64 3
    endloop
  endfacet
  facet normal 1 0 0
    outer loop
      vertex 74 64 0
      vertex 74 0 3
      vertex 74 0 0
    endloop
  endfacet
  facet normal 0 0 1
    outer loop
      vertex 35.3145 12.2219 3
      vertex 11 13 3
      vertex 35.3 12 3
    endloop
  endfacet
  facet normal 0 0 1
    outer loop
      vertex 35.3579 12.44 3
      vertex 11 13 3
      vertex 35.3145 12.2219 3
    endloop
  endfacet
  facet normal 0 0 1
    outer loop
      vertex 35.4294 12.6506 3
      vertex 11 13 3
      vertex 35.3579 12.44 3
    endloop
  endfacet
  facet normal 0 0 1
    outer loop
      vertex 35.5278 12.85 3
      vertex 11 13 3
      vertex 35.4294 12.6506 3
    endloop
  endfacet
  facet normal -0 0 1
    outer loop
      vertex 11 13 3
      vertex 35.5278 12.85 3
      vertex 35.628 13 3
    endloop
  endfacet
  facet normal 0 0 1
    outer loop
      vertex 63 13 3
      vertex 38.6855 12.2219 3
      vertex 38.7 12 3
    endloop
  endfacet
  facet normal 0 0 1
    outer loop
      vertex 63 13 3
      vertex 38.6421 12.44 3
      vertex 38.6855 12.2219 3
    endloop
  endfacet
  facet normal 0 0 1
    outer loop
      vertex 63 13 3
      vertex 38.5706 12.6506 3
      vertex 38.6421 12.44 3
    endloop
  endfacet
  facet normal 0 0 1
    outer loop
      vertex 63 13 3
      vertex 38.4722 12.85 3
      vertex 38.5706 12.6506 3
    endloop
  endfacet
  facet normal 0 -0 1
    outer loop
      vertex 38.4722 12.85 3
      vertex 63 13 3
      vertex 38.372 13 3
    endloop
  endfacet
  facet normal 0 0 1
    outer loop
      vertex 74 64 3
      vertex 63 51 3
      vertex 74 0 3
    endloop
  endfacet
  facet normal -0 0 1
    outer loop
      vertex 38.0349 53.3487 3
      vertex 63 51 3
      vertex 74 64 3
    endloop
  endfacet
  facet normal 0 0 1
    outer loop
      vertex 63 51 3
      vertex 38.6855 52.2219 3
      vertex 38.7 52 3
    endloop
  endfacet
  facet normal 0 0 1
    outer loop
      vertex 63 51 3
      vertex 38.6421 52.44 3
      vertex 38.6855 52.2219 3
    endloop
  endfacet
  facet normal 0 0 1
    outer loop
      vertex 63 51 3
      vertex 38.5706 52.6506 3
      vertex 38.6421 52.44 3
    endloop
  endfacet
  facet normal 0 0 1
    outer loop
      vertex 63 51 3
      vertex 38.4722 52.85 3
      vertex 38.5706 52.6506 3
    endloop
  endfacet
  facet normal 0 0 1
    outer loop
      vertex 63 51 3
      vertex 38.3487 53.0349 3
      vertex 38.4722 52.85 3
    endloop
  endfacet
  facet normal 0 0 1
    outer loop
      vertex 63 51 3
      vertex 38.2021 53.2021 3
      vertex 38.3487 53.0349 3
    endloop
  endfacet
  facet normal 0 0 1
    outer loop
      vertex 63 51 3
      vertex 38.0349 53.3487 3
      vertex 38.2021 53.2021 3
    endloop
  endfacet
  facet normal 0 0 1
    outer loop
      vertex 74 64 3
      vertex 37.85 53.4722 3
      vertex 38.0349 53.3487 3
    endloop
  endfacet
  facet normal 0 0 1
    outer loop
      vertex 74 64 3
      vertex 37.6506 53.5706 3
      vertex 37.85 53.4722 3
    endloop
  endfacet
  facet normal 0 0 1
    outer loop
      vertex 74 64 3
      vertex 37.44 53.6421 3
      vertex 37.6506 53.5706 3
    endloop
  endfacet
  facet normal 0 0 1
    outer loop
      vertex 74 64 3
      vertex 37.2219 53.6855 3
      vertex 37.44 53.6421 3
    endloop
  endfacet
  facet normal 0 0 1
    outer loop
      vertex 74 64 3
      vertex 37 53.7 3
      vertex 37.2219 53.6855 3
    endloop
  endfacet
  facet normal -0 0 1
    outer loop
      vertex 0 64 3
      vertex 37 53.7 3
      vertex 74 64 3
    endloop
  endfacet
  facet normal 0 0 1
    outer loop
      vertex 37 53.7 3
      vertex 0 64 3
      vertex 36.7781 53.6855 3
    endloop
  endfacet
  facet normal 0 0 1
    outer loop
      vertex 35.3145 52.2219 3
      vertex 11 51 3
      vertex 35.3 52 3
    endloop
  endfacet
  facet normal 0 0 1
    outer loop
      vertex 35.3579 52.44 3
      vertex 11 51 3
      vertex 35.3145 52.2219 3
    endloop
  endfacet
  facet normal 0 0 1
    outer loop
      vertex 35.4294 52.6506 3
      vertex 11 51 3
      vertex 35.3579 52.44 3
    endloop
  endfacet
  facet normal 0 0 1
    outer loop
      vertex 35.5278 52.85 3
      vertex 11 51 3
      vertex 35.4294 52.6506 3
    endloop
  endfacet
  facet normal 0 0 1
    outer loop
      vertex 35.6513 53.0349 3
      vertex 11 51 3
      vertex 35.5278 52.85 3
    endloop
  endfacet
  facet normal 0 0 1
    outer loop
      vertex 35.7979 53.2021 3
      vertex 11 51 3
      vertex 35.6513 53.0349 3
    endloop
  endfacet
  facet normal 0 0 1
    outer loop
      vertex 35.9651 53.3487 3
      vertex 11 51 3
      vertex 35.7979 53.2021 3
    endloop
  endfacet
  facet normal 0 0 1
    outer loop
      vertex 0 64 3
      vertex 35.9651 53.3487 3
      vertex 36.15 53.4722 3
    endloop
  endfacet
  facet normal 0 0 1
    outer loop
      vertex 0 64 3
      vertex 36.15 53.4722 3
      vertex 36.3494 53.5706 3
    endloop
  endfacet
  facet normal 0 0 1
    outer loop
      vertex 0 64 3
      vertex 36.3494 53.5706 3
      vertex 36.56 53.6421 3
    endloop
  endfacet
  facet normal 0 0 1
    outer loop
      vertex 36.7781 53.6855 3
      vertex 0 64 3
      vertex 36.56 53.6421 3
    endloop
  endfacet
  facet normal 0 0 1
    outer loop
      vertex 11 51 3
      vertex 0 64 3
      vertex 11 13 3
    endloop
  endfacet
  facet normal 0 0 1
    outer loop
      vertex 35.9651 53.3487 3
      vertex 0 64 3
      vertex 11 51 3
    endloop
  endfacet
  facet normal -0 0 1
    outer loop
      vertex 63 13 3
      vertex 74 0 3
      vertex 63 51 3
    endloop
  endfacet
  facet normal 0 0 1
    outer loop
      vertex 38.6855 11.7781 3
      vertex 63 13 3
      vertex 38.7 12 3
    endloop
  endfacet
  facet normal 0 0 1
    outer loop
      vertex 38.6421 11.56 3
      vertex 63 13 3
      vertex 38.6855 11.7781 3
    endloop
  endfacet
  facet normal 0 0 1
    outer loop
      vertex 38.5706 11.3494 3
      vertex 63 13 3
      vertex 38.6421 11.56 3
    endloop
  endfacet
  facet normal 0 0 1
    outer loop
      vertex 38.4722 11.15 3
      vertex 63 13 3
      vertex 38.5706 11.3494 3
    endloop
  endfacet
  facet normal 0 0 1
    outer loop
      vertex 38.3487 10.9651 3
      vertex 63 13 3
      vertex 38.4722 11.15 3
    endloop
  endfacet
  facet normal 0 0 1
    outer loop
      vertex 38.2021 10.7979 3
      vertex 63 13 3
      vertex 38.3487 10.9651 3
    endloop
  endfacet
  facet normal 0 0 1
    outer loop
      vertex 38.0349 10.6513 3
      vertex 63 13 3
      vertex 38.2021 10.7979 3
    endloop
  endfacet
  facet normal 0 0 1
    outer loop
      vertex 63 13 3
      vertex 38.0349 10.6513 3
      vertex 74 0 3
    endloop
  endfacet
  facet normal -0 0 1
    outer loop
      vertex 37.85 10.5278 3
      vertex 74 0 3
      vertex 38.0349 10.6513 3
    endloop
  endfacet
  facet normal -0 0 1
    outer loop
      vertex 37.6506 10.4294 3
      vertex 74 0 3
      vertex 37.85 10.5278 3
    endloop
  endfacet
  facet normal -0 0 1
    outer loop
      vertex 37.44 10.3579 3
      vertex 74 0 3
      vertex 37.6506 10.4294 3
    endloop
  endfacet
  facet normal -0 0 1
    outer loop
      vertex 37.2219 10.3145 3
      vertex 74 0 3
      vertex 37.44 10.3579 3
    endloop
  endfacet
  facet normal -0 0 1
    outer loop
      vertex 37 10.3 3
      vertex 74 0 3
      vertex 37.2219 10.3145 3
    endloop
  endfacet
  facet normal 0 0 1
    outer loop
      vertex 0 0 3
      vertex 37 10.3 3
      vertex 36.7781 10.3145 3
    endloop
  endfacet
  facet normal 0 0 1
    outer loop
      vertex 0 0 3
      vertex 36.7781 10.3145 3
      vertex 36.56 10.3579 3
    endloop
  endfacet
  facet normal 0 0 1
    outer loop
      vertex 11 13 3
      vertex 35.3145 11.7781 3
      vertex 35.3 12 3
    endloop
  endfacet
  facet normal 0 0 1
    outer loop
      vertex 11 13 3
      vertex 35.3579 11.56 3
      vertex 35.3145 11.7781 3
    endloop
  endfacet
  facet normal 0 0 1
    outer loop
      vertex 11 13 3
      vertex 35.4294 11.3494 3
      vertex 35.3579 11.56 3
    endloop
  endfacet
  facet normal 0 0 1
    outer loop
      vertex 11 13 3
      vertex 35.5278 11.15 3
      vertex 35.4294 11.3494 3
    endloop
  endfacet
  facet normal 0 0 1
    outer loop
      vertex 11 13 3
      vertex 35.6513 10.9651 3
      vertex 35.5278 11.15 3
    endloop
  endfacet
  facet normal 0 0 1
    outer loop
      vertex 11 13 3
      vertex 35.7979 10.7979 3
      vertex 35.6513 10.9651 3
    endloop
  endfacet
  facet normal 0 0 1
    outer loop
      vertex 11 13 3
      vertex 35.9651 10.6513 3
      vertex 35.7979 10.7979 3
    endloop
  endfacet
  facet normal 0 0 1
    outer loop
      vertex 0 0 3
      vertex 35.9651 10.6513 3
      vertex 11 13 3
    endloop
  endfacet
  facet normal 0 0 1
    outer loop
      vertex 35.9651 10.6513 3
      vertex 0 0 3
      vertex 36.15 10.5278 3
    endloop
  endfacet
  facet normal 0 0 1
    outer loop
      vertex 36.15 10.5278 3
      vertex 0 0 3
      vertex 36.3494 10.4294 3
    endloop
  endfacet
  facet normal 0 0 1
    outer loop
      vertex 36.3494 10.4294 3
      vertex 0 0 3
      vertex 36.56 10.3579 3
    endloop
  endfacet
  facet normal 0 0 1
    outer loop
      vertex 37 10.3 3
      vertex 0 0 3
      vertex 74 0 3
    endloop
  endfacet
  facet normal 0 0 1
    outer loop
      vertex 0 0 3
      vertex 11 13 3
      vertex 0 64 3
    endloop
  endfacet
  facet normal -0 0 1
    outer loop
      vertex 38.6855 51.7781 3
      vertex 63 51 3
      vertex 38.7 52 3
    endloop
  endfacet
  facet normal -0 0 1
    outer loop
      vertex 38.6421 51.56 3
      vertex 63 51 3
      vertex 38.6855 51.7781 3
    endloop
  endfacet
  facet normal -0 0 1
    outer loop
      vertex 38.5706 51.3494 3
      vertex 63 51 3
      vertex 38.6421 51.56 3
    endloop
  endfacet
  facet normal -0 0 1
    outer loop
      vertex 38.4722 51.15 3
      vertex 63 51 3
      vertex 38.5706 51.3494 3
    endloop
  endfacet
  facet normal 0 0 1
    outer loop
      vertex 63 51 3
      vertex 38.4722 51.15 3
      vertex 38.372 51 3
    endloop
  endfacet
  facet normal 0 0 1
    outer loop
      vertex 35.5278 51.15 3
      vertex 11 51 3
      vertex 35.628 51 3
    endloop
  endfacet
  facet normal 0 0 1
    outer loop
      vertex 35.4294 51.3494 3
      vertex 11 51 3
      vertex 35.5278 51.15 3
    endloop
  endfacet
  facet normal 0 0 1
    outer loop
      vertex 35.3579 51.56 3
      vertex 11 51 3
      vertex 35.4294 51.3494 3
    endloop
  endfacet
  facet normal 0 0 1
    outer loop
      vertex 35.3145 51.7781 3
      vertex 11 51 3
      vertex 35.3579 51.56 3
    endloop
  endfacet
  facet normal 0 0 1
    outer loop
      vertex 11 51 3
      vertex 35.3145 51.7781 3
      vertex 35.3 52 3
    endloop
  endfacet
  facet normal -0 0 -1
    outer loop
      vertex 35.3145 51.7781 0
      vertex 11 51 0
      vertex 35.3 52 0
    endloop
  endfacet
  facet normal -0 0 -1
    outer loop
      vertex 35.3579 51.56 0
      vertex 11 51 0
      vertex 35.3145 51.7781 0
    endloop
  endfacet
  facet normal -0 0 -1
    outer loop
      vertex 35.4294 51.3494 0
      vertex 11 51 0
      vertex 35.3579 51.56 0
    endloop
  endfacet
  facet normal -0 0 -1
    outer loop
      vertex 35.5278 51.15 0
      vertex 11 51 0
      vertex 35.4294 51.3494 0
    endloop
  endfacet
  facet normal 0 0 -1
    outer loop
      vertex 11 51 0
      vertex 35.5278 51.15 0
      vertex 35.628 51 0
    endloop
  endfacet
  facet normal 0 0 -1
    outer loop
      vertex 63 51 0
      vertex 38.6855 51.7781 0
      vertex 38.7 52 0
    endloop
  endfacet
  facet normal 0 0 -1
    outer loop
      vertex 63 51 0
      vertex 38.6421 51.56 0
      vertex 38.6855 51.7781 0
    endloop
  endfacet
  facet normal 0 0 -1
    outer loop
      vertex 63 51 0
      vertex 38.5706 51.3494 0
      vertex 38.6421 51.56 0
    endloop
  endfacet
  facet normal 0 0 -1
    outer loop
      vertex 63 51 0
      vertex 38.4722 51.15 0
      vertex 38.5706 51.3494 0
    endloop
  endfacet
  facet normal 0 -0 -1
    outer loop
      vertex 38.4722 51.15 0
      vertex 63 51 0
      vertex 38.372 51 0
    endloop
  endfacet
  facet normal 0 0 -1
    outer loop
      vertex 74 0 0
      vertex 63 13 0
      vertex 74 64 0
    endloop
  endfacet
  facet normal 0 0 -1
    outer loop
      vertex 38.0349 10.6513 0
      vertex 63 13 0
      vertex 74 0 0
    endloop
  endfacet
  facet normal 0 0 -1
    outer loop
      vertex 63 13 0
      vertex 38.6855 11.7781 0
      vertex 38.7 12 0
    endloop
  endfacet
  facet normal 0 0 -1
    outer loop
      vertex 63 13 0
      vertex 38.6421 11.56 0
      vertex 38.6855 11.7781 0
    endloop
  endfacet
  facet normal 0 0 -1
    outer loop
      vertex 63 13 0
      vertex 38.5706 11.3494 0
      vertex 38.6421 11.56 0
    endloop
  endfacet
  facet normal 0 0 -1
    outer loop
      vertex 63 13 0
      vertex 38.4722 11.15 0
      vertex 38.5706 11.3494 0
    endloop
  endfacet
  facet normal 0 0 -1
    outer loop
      vertex 63 13 0
      vertex 38.3487 10.9651 0
      vertex 38.4722 11.15 0
    endloop
  endfacet
  facet normal 0 0 -1
    outer loop
      vertex 63 13 0
      vertex 38.2021 10.7979 0
      vertex 38.3487 10.9651 0
    endloop
  endfacet
  facet normal 0 0 -1
    outer loop
      vertex 63 13 0
      vertex 38.0349 10.6513 0
      vertex 38.2021 10.7979 0
    endloop
  endfacet
  facet normal 0 0 -1
    outer loop
      vertex 74 0 0
      vertex 37.85 10.5278 0
      vertex 38.0349 10.6513 0
    endloop
  endfacet
  facet normal 0 0 -1
    outer loop
      vertex 74 0 0
      vertex 37.6506 10.4294 0
      vertex 37.85 10.5278 0
    endloop
  endfacet
  facet normal 0 0 -1
    outer loop
      vertex 74 0 0
      vertex 37.44 10.3579 0
      vertex 37.6506 10.4294 0
    endloop
  endfacet
  facet normal 0 0 -1
    outer loop
      vertex 74 0 0
      vertex 37.2219 10.3145 0
      vertex 37.44 10.3579 0
    endloop
  endfacet
  facet normal 0 0 -1
    outer loop
      vertex 74 0 0
      vertex 37 10.3 0
      vertex 37.2219 10.3145 0
    endloop
  endfacet
  facet normal 0 0 -1
    outer loop
      vertex 0 0 0
      vertex 37 10.3 0
      vertex 74 0 0
    endloop
  endfacet
  facet normal -0 0 -1
    outer loop
      vertex 37 10.3 0
      vertex 0 0 0
      vertex 36.7781 10.3145 0
    endloop
  endfacet
  facet normal 0 0 -1
    outer loop
      vertex 35.3145 11.7781 0
      vertex 11 13 0
      vertex 35.3 12 0
    endloop
  endfacet
  facet normal 0 0 -1
    outer loop
      vertex 35.3579 11.56 0
      vertex 11 13 0
      vertex 35.3145 11.7781 0
    endloop
  endfacet
  facet normal 0 0 -1
    outer loop
      vertex 35.4294 11.3494 0
      vertex 11 13 0
      vertex 35.3579 11.56 0
    endloop
  endfacet
  facet normal 0 0 -1
    outer loop
      vertex 35.5278 11.15 0
      vertex 11 13 0
      vertex 35.4294 11.3494 0
    endloop
  endfacet
  facet normal 0 0 -1
    outer loop
      vertex 35.6513 10.9651 0
      vertex 11 13 0
      vertex 35.5278 11.15 0
    endloop
  endfacet
  facet normal 0 0 -1
    outer loop
      vertex 35.7979 10.7979 0
      vertex 11 13 0
      vertex 35.6513 10.9651 0
    endloop
  endfacet
  facet normal 0 0 -1
    outer loop
      vertex 35.9651 10.6513 0
      vertex 11 13 0
      vertex 35.7979 10.7979 0
    endloop
  endfacet
  facet normal 0 0 -1
    outer loop
      vertex 0 0 0
      vertex 35.9651 10.6513 0
      vertex 36.15 10.5278 0
    endloop
  endfacet
  facet normal 0 0 -1
    outer loop
      vertex 0 0 0
      vertex 36.15 10.5278 0
      vertex 36.3494 10.4294 0
    endloop
  endfacet
  facet normal 0 0 -1
    outer loop
      vertex 0 0 0
      vertex 36.3494 10.4294 0
      vertex 36.56 10.3579 0
    endloop
  endfacet
  facet normal -0 0 -1
    outer loop
      vertex 36.7781 10.3145 0
      vertex 0 0 0
      vertex 36.56 10.3579 0
    endloop
  endfacet
  facet normal -0 0 -1
    outer loop
      vertex 11 13 0
      vertex 0 0 0
      vertex 11 51 0
    endloop
  endfacet
  facet normal -0 0 -1
    outer loop
      vertex 35.9651 10.6513 0
      vertex 0 0 0
      vertex 11 13 0
    endloop
  endfacet
  facet normal 0 0 -1
    outer loop
      vertex 63 51 0
      vertex 74 64 0
      vertex 63 13 0
    endloop
  endfacet
  facet normal 0 0 -1
    outer loop
      vertex 38.6855 52.2219 0
      vertex 63 51 0
      vertex 38.7 52 0
    endloop
  endfacet
  facet normal 0 0 -1
    outer loop
      vertex 38.6421 52.44 0
      vertex 63 51 0
      vertex 38.6855 52.2219 0
    endloop
  endfacet
  facet normal 0 0 -1
    outer loop
      vertex 38.5706 52.6506 0
      vertex 63 51 0
      vertex 38.6421 52.44 0
    endloop
  endfacet
  facet normal 0 0 -1
    outer loop
      vertex 38.4722 52.85 0
      vertex 63 51 0
      vertex 38.5706 52.6506 0
    endloop
  endfacet
  facet normal 0 0 -1
    outer loop
      vertex 38.3487 53.0349 0
      vertex 63 51 0
      vertex 38.4722 52.85 0
    endloop
  endfacet
  facet normal 0 0 -1
    outer loop
      vertex 38.2021 53.2021 0
      vertex 63 51 0
      vertex 38.3487 53.0349 0
    endloop
  endfacet
  facet normal 0 0 -1
    outer loop
      vertex 38.0349 53.3487 0
      vertex 63 51 0
      vertex 38.2021 53.2021 0
    endloop
  endfacet
  facet normal 0 0 -1
    outer loop
      vertex 63 51 0
      vertex 38.0349 53.3487 0
      vertex 74 64 0
    endloop
  endfacet
  facet normal 0 0 -1
    outer loop
      vertex 37.85 53.4722 0
      vertex 74 64 0
      vertex 38.0349 53.3487 0
    endloop
  endfacet
  facet normal 0 0 -1
    outer loop
      vertex 37.6506 53.5706 0
      vertex 74 64 0
      vertex 37.85 53.4722 0
    endloop
  endfacet
  facet normal 0 0 -1
    outer loop
      vertex 37.44 53.6421 0
      vertex 74 64 0
      vertex 37.6506 53.5706 0
    endloop
  endfacet
  facet normal 0 0 -1
    outer loop
      vertex 37.2219 53.6855 0
      vertex 74 64 0
      vertex 37.44 53.6421 0
    endloop
  endfacet
  facet normal 0 0 -1
    outer loop
      vertex 37 53.7 0
      vertex 74 64 0
      vertex 37.2219 53.6855 0
    endloop
  endfacet
  facet normal 0 0 -1
    outer loop
      vertex 0 64 0
      vertex 37 53.7 0
      vertex 36.7781 53.6855 0
    endloop
  endfacet
  facet normal 0 0 -1
    outer loop
      vertex 0 64 0
      vertex 36.7781 53.6855 0
      vertex 36.56 53.6421 0
    endloop
  endfacet
  facet normal 0 0 -1
    outer loop
      vertex 11 51 0
      vertex 35.3145 52.2219 0
      vertex 35.3 52 0
    endloop
  endfacet
  facet normal 0 0 -1
    outer loop
      vertex 11 51 0
      vertex 35.3579 52.44 0
      vertex 35.3145 52.2219 0
    endloop
  endfacet
  facet normal 0 0 -1
    outer loop
      vertex 11 51 0
      vertex 35.4294 52.6506 0
      vertex 35.3579 52.44 0
    endloop
  endfacet
  facet normal 0 0 -1
    outer loop
      vertex 11 51 0
      vertex 35.5278 52.85 0
      vertex 35.4294 52.6506 0
    endloop
  endfacet
  facet normal 0 0 -1
    outer loop
      vertex 11 51 0
      vertex 35.6513 53.0349 0
      vertex 35.5278 52.85 0
    endloop
  endfacet
  facet normal 0 0 -1
    outer loop
      vertex 11 51 0
      vertex 35.7979 53.2021 0
      vertex 35.6513 53.0349 0
    endloop
  endfacet
  facet normal 0 0 -1
    outer loop
      vertex 11 51 0
      vertex 35.9651 53.3487 0
      vertex 35.7979 53.2021 0
    endloop
  endfacet
  facet normal 0 0 -1
    outer loop
      vertex 0 64 0
      vertex 35.9651 53.3487 0
      vertex 11 51 0
    endloop
  endfacet
  facet normal 0 0 -1
    outer loop
      vertex 35.9651 53.3487 0
      vertex 0 64 0
      vertex 36.15 53.4722 0
    endloop
  endfacet
  facet normal 0 0 -1
    outer loop
      vertex 36.15 53.4722 0
      vertex 0 64 0
      vertex 36.3494 53.5706 0
    endloop
  endfacet
  facet normal 0 0 -1
    outer loop
      vertex 36.3494 53.5706 0
      vertex 0 64 0
      vertex 36.56 53.6421 0
    endloop
  endfacet
  facet normal 0 0 -1
    outer loop
      vertex 37 53.7 0
      vertex 0 64 0
      vertex 74 64 0
    endloop
  endfacet
  facet normal 0 0 -1
    outer loop
      vertex 0 64 0
      vertex 11 51 0
      vertex 0 0 0
    endloop
  endfacet
  facet normal 0 0 -1
    outer loop
      vertex 38.6855 12.2219 0
      vertex 63 13 0
      vertex 38.7 12 0
    endloop
  endfacet
  facet normal 0 0 -1
    outer loop
      vertex 38.6421 12.44 0
      vertex 63 13 0
      vertex 38.6855 12.2219 0
    endloop
  endfacet
  facet normal 0 0 -1
    outer loop
      vertex 38.5706 12.6506 0
      vertex 63 13 0
      vertex 38.6421 12.44 0
    endloop
  endfacet
  facet normal 0 0 -1
    outer loop
      vertex 38.4722 12.85 0
      vertex 63 13 0
      vertex 38.5706 12.6506 0
    endloop
  endfacet
  facet normal -0 0 -1
    outer loop
      vertex 63 13 0
      vertex 38.4722 12.85 0
      vertex 38.372 13 0
    endloop
  endfacet
  facet normal 0 0 -1
    outer loop
      vertex 35.5278 12.85 0
      vertex 11 13 0
      vertex 35.628 13 0
    endloop
  endfacet
  facet normal 0 0 -1
    outer loop
      vertex 35.4294 12.6506 0
      vertex 11 13 0
      vertex 35.5278 12.85 0
    endloop
  endfacet
  facet normal 0 0 -1
    outer loop
      vertex 35.3579 12.44 0
      vertex 11 13 0
      vertex 35.4294 12.6506 0
    endloop
  endfacet
  facet normal 0 0 -1
    outer loop
      vertex 35.3145 12.2219 0
      vertex 11 13 0
      vertex 35.3579 12.44 0
    endloop
  endfacet
  facet normal 0 0 -1
    outer loop
      vertex 11 13 0
      vertex 35.3145 12.2219 0
      vertex 35.3 12 0
    endloop
  endfacet
  facet normal -1 0 0
    outer loop
      vertex 0 0 0
      vertex 0 64 3
      vertex 0 64 0
    endloop
  endfacet
  facet normal -1 -0 0
    outer loop
      vertex 0 64 3
      vertex 0 0 0
      vertex 0 0 3
    endloop
  endfacet
  facet normal 0 1 -0
    outer loop
      vertex 74 64 0
      vertex 0 64 3
      vertex 74 64 3
    endloop
  endfacet
  facet normal 0 1 0
    outer loop
      vertex 0 64 3
      vertex 74 64 0
      vertex 0 64 0
    endloop
  endfacet
  facet normal 0 -1 0
    outer loop
      vertex 0 0 0
      vertex 74 0 3
      vertex 0 0 3
    endloop
  endfacet
  facet normal 0 -1 -0
    outer loop
      vertex 74 0 3
      vertex 0 0 0
      vertex 74 0 0
    endloop
  endfacet
  facet normal -1 0 0
    outer loop
      vertex 63 13 0
      vertex 63 51 3
      vertex 63 51 0
    endloop
  endfacet
  facet normal -1 -0 0
    outer loop
      vertex 63 51 3
      vertex 63 13 0
      vertex 63 13 3
    endloop
  endfacet
  facet normal 1 -0 0
    outer loop
      vertex 11 13 3
      vertex 11 51 0
      vertex 11 51 3
    endloop
  endfacet
  facet normal 1 0 0
    outer loop
      vertex 11 51 0
      vertex 11 13 3
      vertex 11 13 0
    endloop
  endfacet
  facet normal 0 -1 0
    outer loop
      vertex 11 51 0
      vertex 35.628 51 3
      vertex 11 51 3
    endloop
  endfacet
  facet normal 0 -1 -0
    outer loop
      vertex 35.628 51 3
      vertex 11 51 0
      vertex 35.628 51 0
    endloop
  endfacet
  facet normal 0 -1 0
    outer loop
      vertex 38.372 51 0
      vertex 63 51 3
      vertex 38.372 51 3
    endloop
  endfacet
  facet normal 0 -1 -0
    outer loop
      vertex 63 51 3
      vertex 38.372 51 0
      vertex 63 51 0
    endloop
  endfacet
  facet normal 0 1 -0
    outer loop
      vertex 35.628 13 0
      vertex 11 13 3
      vertex 35.628 13 3
    endloop
  endfacet
  facet normal 0 1 0
    outer loop
      vertex 11 13 3
      vertex 35.628 13 0
      vertex 11 13 0
    endloop
  endfacet
  facet normal 0 1 -0
    outer loop
      vertex 63 13 0
      vertex 38.372 13 3
      vertex 63 13 3
    endloop
  endfacet
  facet normal 0 1 0
    outer loop
      vertex 38.372 13 3
      vertex 63 13 0
      vertex 38.372 13 0
    endloop
  endfacet
endsolid OpenSCAD_Model
